<svg xmlns="http://www.w3.org/2000/svg" height="800" width="1200" id="svg8" version="1.1" viewBox="-15.76809 -8.35845 136.65678 50.1507"><defs id="defs2"><style id="style10">.cls-1{fill:#005697}.cls-2{fill:#e32726}</style></defs><g transform="translate(-167.7698 -312.5245)" id="layer1"><g transform="translate(.2646 -.2646)" id="g187"><path class="cls-1" d="M212.5042 333.6101a3.9529 3.9529 0 01-3.9688 3.9688h-.344a3.9529 3.9529 0 01-3.9687-3.9688v-8.202a3.9529 3.9529 0 013.9687-3.9688h.344a3.9158 3.9158 0 013.9688 3.9688v1.405a.2275.2275 0 01-.2646.2645h-1.9712a.2275.2275 0 01-.2646-.2646v-1.4102a1.4631 1.4631 0 00-1.479-1.479h-.344a1.4631 1.4631 0 00-1.479 1.479v8.202a1.5002 1.5002 0 001.479 1.479h.344a1.4658 1.4658 0 001.479-1.479v-1.4075q0-.2778.2646-.2778h1.9712q.2646 0 .2646.2778z" id="path16" fill="#005697" stroke-width=".2646"/><path class="cls-1" d="M222.0106 321.8203c0 .0132-.4392 1.323-1.3652 3.7889l-1.5452 4.6434a.4842.4842 0 00-.0344.2143v6.7019a.2275.2275 0 01-.2646.2646h-1.9711a.2275.2275 0 01-.2646-.2646v-6.6913a1.196 1.196 0 00-.0423-.2355c-.127-.328-.6456-2.2225-1.5505-4.654l-1.3626-3.7677a.1693.1693 0 01.1694-.2355h2.1166a.3493.3493 0 01.3652.2355l1.4181 4.3471c.0265.045.0582.09.1164.09a.127.127 0 00.1138-.09l1.4552-4.347a.3307.3307 0 01.3413-.2356h2.1167a.1693.1693 0 01.1879.2355z" id="path18" fill="#005697" stroke-width=".2646"/><path class="cls-1" d="M231.8902 327.5777a3.9529 3.9529 0 01-3.9688 3.9687h-1.5637a.2275.2275 0 00-.2645.2646v5.3578a.2275.2275 0 01-.2646.2646h-1.9659a.2275.2275 0 01-.2646-.2646V321.823a.2275.2275 0 01.2646-.2646h4.0508a3.9158 3.9158 0 013.9687 3.9687zm-2.4871 0v-2.048a1.4658 1.4658 0 00-1.479-1.479h-1.5637q-.2646 0-.2646.2779v4.4503q0 .2778.2646.2778h1.5637a1.4631 1.4631 0 001.479-1.479z" id="path20" fill="#005697" stroke-width=".2646"/><path class="cls-1" d="M242.148 337.1688c.045.1746-.045.2646-.172.2646h-1.9737a.3201.3201 0 01-.3149-.2646L238.1 331.258a.3387.3387 0 00-.3466-.2646h-1.0821c-.1879 0-.2805.0873-.2805.2646v5.9108a.2275.2275 0 01-.2646.2646h-1.9711a.2275.2275 0 01-.2646-.2646v-15.3644a.2302.2302 0 01.2646-.2407h4.0508a3.8047 3.8047 0 012.8072 1.1668 3.8603 3.8603 0 011.1562 2.8178v1.6801q0 1.778-1.5637 3.13a.3149.3149 0 00-.1508.299c0 .0847.2646 1.2356.815 3.0797zm-2.4315-9.943V325.49a1.4684 1.4684 0 00-1.479-1.4843H236.65q-.2778 0-.2778.2646v4.1804a.246.246 0 00.2778.2804h1.5875a1.4658 1.4658 0 001.479-1.4843z" id="path22" fill="#005697" stroke-width=".2646"/><path class="cls-1" d="M252.1228 337.1688a.2275.2275 0 01-.2645.2646h-7.358a.2275.2275 0 01-.2647-.2646v-15.3247a.2275.2275 0 01.2646-.2646h7.374a.2275.2275 0 01.2645.2646v1.9712a.2275.2275 0 01-.2645.2646h-4.8737q-.2778 0-.2778.2645v3.6698q0 .2646.2778.2646h3.8365c.172 0 .2646.0926.2646.2646v1.934q0 .2647-.2646.2647h-3.8365q-.2778 0-.2778.2646v3.675q0 .2646.2778.2646h4.8657a.2275.2275 0 01.2646.2646z" id="path24" fill="#005697" stroke-width=".2646"/><path class="cls-1" d="M262.3331 333.6101a3.9529 3.9529 0 01-3.9687 3.9688h-.344a3.9529 3.9529 0 01-3.9687-3.9688v-1.0927q0-.2778.2645-.2778h1.9712q.2646 0 .2646.2778v1.0927a1.5002 1.5002 0 001.479 1.479h.344a1.4235 1.4235 0 001.0583-.4312 1.442 1.442 0 00.4286-1.0583 2.0294 2.0294 0 00-.6456-1.6193q-1.008-.8546-3.6274-3.122a4.3894 4.3894 0 01-1.5134-3.4661 3.9476 3.9476 0 013.9687-3.9688h.344a3.9158 3.9158 0 013.9687 3.9688v1.1562q0 .2778-.2646.2778h-1.9817q-.2646 0-.2646-.2778v-1.1456a1.4631 1.4631 0 00-1.479-1.479h-.344a1.4631 1.4631 0 00-1.479 1.479 1.9923 1.9923 0 00.6642 1.5875l3.601 3.13a4.4159 4.4159 0 011.524 3.4898z" id="path26" fill="#005697" stroke-width=".2646"/><path class="cls-1" d="M272.6069 333.6101a3.9529 3.9529 0 01-3.9688 3.9688h-.3254a3.9529 3.9529 0 01-3.9687-3.9688v-1.0927q0-.2778.2645-.2778h1.9712q.2646 0 .2646.2778v1.0927a1.5002 1.5002 0 001.4684 1.479h.344a1.4235 1.4235 0 001.0583-.4312 1.442 1.442 0 00.4286-1.0583 2.0294 2.0294 0 00-.6456-1.6193q-1.008-.8546-3.6274-3.122a4.3894 4.3894 0 01-1.5266-3.4661 3.9476 3.9476 0 013.9687-3.9688h.344a3.9158 3.9158 0 013.9687 3.9688v1.1562q0 .2778-.2646.2778h-1.9711q-.2646 0-.2646-.2778v-1.1456a1.4631 1.4631 0 00-1.479-1.479h-.3334a1.4631 1.4631 0 00-1.479 1.479 1.9923 1.9923 0 00.664 1.5875l3.601 3.13a4.4159 4.4159 0 011.5082 3.4898z" id="path28" fill="#005697" stroke-width=".2646"/><path class="cls-2" d="M204.392 343.6617v-3.7439h2.466v.6535h-1.7357v.8785h1.4764v.6508h-1.4764v.9102h1.7356v.6509z" id="path32" fill="#e32726" stroke-width=".2646"/><path class="cls-2" d="M210.4404 343.6617v-2.1802l-.7144 1.4182h-.4947l-.7144-1.4208v2.1801h-.7303v-3.7412h.7197l.979 2.024.971-2.024h.7064v3.7439z" id="path34" fill="#e32726" stroke-width=".2646"/><path class="cls-2" d="M213.8085 343.6617h-1.5663v-3.7439h1.5028c.7303 0 1.1563.4101 1.1563 1.0584a.8652.8652 0 01-.463.7725.8705.8705 0 01.5159.8414c.003.6932-.4763 1.0716-1.1457 1.0716zm-.119-3.0904h-.7144v.8626h.7144a.434.434 0 100-.8626zm.0476 1.5188h-.762v.9207h.762a.4604.4604 0 100-.9207z" id="path36" fill="#e32726" stroke-width=".2646"/><path class="cls-2" d="M215.8988 343.6617v-3.7439h2.4659v.6535h-1.7357v.8785h1.4764v.6508h-1.4764v.9102h1.7357v.6509z" id="path38" fill="#e32726" stroke-width=".2646"/><path class="cls-2" d="M221.6243 343.3045a1.3626 1.3626 0 01-.9869.3572h-1.352v-3.7439h1.352a1.3626 1.3626 0 01.987.3572c.4206.4207.3783.9366.3783 1.4976 0 .5609.0423 1.1112-.3784 1.5319zm-.5106-2.503a.6509.6509 0 00-.5477-.2302h-.553v2.4395h.553a.6535.6535 0 00.5477-.2302c.1376-.1693.1587-.4365.1587-1.0028 0-.5662-.0212-.807-.1587-.9763z" id="path40" fill="#e32726" stroke-width=".2646"/><path class="cls-2" d="M225.2941 343.3045a1.3626 1.3626 0 01-.9895.3572h-1.352v-3.7439h1.352a1.3653 1.3653 0 01.9895.3572c.4207.4207.3784.9366.3784 1.4976 0 .5609.0423 1.1112-.3784 1.5319zm-.5106-2.503a.6509.6509 0 00-.5477-.2302h-.553v2.4395h.553a.6535.6535 0 00.5477-.2302c.1375-.1693.1587-.4365.1587-1.0028 0-.5662-.0212-.807-.156-.9763z" id="path42" fill="#e32726" stroke-width=".2646"/><path class="cls-2" d="M226.6276 343.6617v-3.7439h2.466v.6535h-1.7357v.8785h1.4763v.6508h-1.4763v.9102h1.7356v.6509z" id="path44" fill="#e32726" stroke-width=".2646"/><path class="cls-2" d="M232.3532 343.3045a1.3626 1.3626 0 01-.9895.3572h-1.352v-3.7439h1.352a1.3653 1.3653 0 01.9895.3572c.4207.4207.3783.9366.3783 1.4976 0 .5609.0423 1.1112-.3783 1.5319zm-.5107-2.503a.6509.6509 0 00-.5476-.2302h-.553v2.4395h.553a.6535.6535 0 00.5476-.2302c.1376-.1693.1588-.4365.1588-1.0028 0-.5662-.0212-.807-.1588-.9763z" id="path46" fill="#e32726" stroke-width=".2646"/><path class="cls-2" d="M235.1842 343.6617v-3.7439h.7303v3.7439z" id="path48" fill="#e32726" stroke-width=".2646"/><path class="cls-2" d="M239.1874 343.6617l-1.4817-2.2966v2.2966h-.7302v-3.7439h.6455l1.4817 2.2913v-2.2913h.7303v3.7439z" id="path50" fill="#e32726" stroke-width=".2646"/><path class="cls-2" d="M243.8467 340.5713v3.0904h-.7303v-3.0904h-.979v-.6508h2.6856v.6508z" id="path52" fill="#e32726" stroke-width=".2646"/><path class="cls-2" d="M247.908 343.2833a1.4526 1.4526 0 01-2.024 0c-.3784-.3783-.3678-.8466-.3678-1.4922s0-1.114.3678-1.4923a1.4526 1.4526 0 012.024 0c.3784.3784.3731.8467.3731 1.4923s.005 1.1139-.373 1.4922zm-.5291-2.5453a.6059.6059 0 00-.4683-.1984.6191.6191 0 00-.4736.1984c-.143.1588-.18.3308-.18 1.0584s.037.8942.18 1.0583a.6191.6191 0 00.4736.1984.6059.6059 0 00.4683-.1984c.1429-.1588.1852-.3307.1852-1.0583s-.0556-.8996-.1958-1.0584z" id="path54" fill="#e32726" stroke-width=".2646"/><path class="cls-2" d="M251.9085 343.6617v-2.1802l-.7143 1.4182h-.5027l-.7197-1.4182v2.1802h-.7303v-3.7439h.7197l.979 2.024.971-2.024h.7196v3.7439z" id="path56" fill="#e32726" stroke-width=".2646"/><path class="cls-2" d="M255.9884 343.2833a1.4526 1.4526 0 01-2.024 0c-.3784-.3783-.3678-.8466-.3678-1.4922s0-1.114.3677-1.4923a1.4526 1.4526 0 012.0241 0c.3784.3784.373.8467.373 1.4923s.005 1.1139-.373 1.4922zm-.5292-2.5453a.6059.6059 0 00-.4683-.1984.6191.6191 0 00-.4736.1984c-.1428.1588-.1799.3308-.1799 1.0584s.037.8942.18 1.0583a.6191.6191 0 00.4735.1984.6059.6059 0 00.4683-.1984c.143-.1588.1853-.3307.1853-1.0583s-.0556-.8996-.1985-1.0584z" id="path58" fill="#e32726" stroke-width=".2646"/><path class="cls-2" d="M259.3169 343.6617l-.7409-1.5029h-.5291v1.4923h-.7303v-3.7333h1.4711a1.1324 1.1324 0 011.2145 1.1457 1.008 1.008 0 01-.6827.9842l.8361 1.614zm-.5768-3.0904h-.688v.987h.688a.4948.4948 0 100-.987z" id="path60" fill="#e32726" stroke-width=".2646"/><path class="cls-2" d="M262.9708 343.6617l-.7303-1.5029h-.5291v1.4923h-.7277v-3.7333h1.4658a1.1324 1.1324 0 011.2145 1.1457 1.008 1.008 0 01-.6826.9842l.836 1.614zm-.5662-3.0904h-.688v.987h.688a.4948.4948 0 100-.987z" id="path62" fill="#e32726" stroke-width=".2646"/><path class="cls-2" d="M266.8972 343.2833a1.4526 1.4526 0 01-2.024 0c-.3784-.3783-.3678-.8466-.3678-1.4922s0-1.114.3677-1.4923a1.4526 1.4526 0 012.024 0c.3784.3784.3732.8467.3732 1.4923s.005 1.1139-.3731 1.4922zm-.5292-2.5453a.6059.6059 0 00-.4683-.1984.6191.6191 0 00-.4736.1984c-.1429.1588-.18.3308-.18 1.0584s.037.8942.18 1.0583a.6191.6191 0 00.4736.1984.6059.6059 0 00.4683-.1984c.1429-.1588.1852-.3307.1852-1.0583s-.0556-.8996-.1984-1.0584z" id="path64" fill="#e32726" stroke-width=".2646"/><path class="cls-2" d="M271.4242 343.6617h-.6085l-.688-2.2701-.6879 2.27h-.6085l-.9975-3.7438h.7435l.5794 2.3601.6826-2.36h.5477l.6827 2.36.5847-2.36h.762z" id="path66" fill="#e32726" stroke-width=".2646"/><path d="M184.2228 346.2228a16.6687 16.6687 0 0012.0095-5.0958h-24.0189a16.6687 16.6687 0 0012.0094 5.0958z" id="path70" fill="#00aae9" stroke-width=".2646"/><path class="cls-1" d="M188.9774 334.8299h-.688l-2.749 3.7253h12.7345a16.6132 16.6132 0 002.6061-7.7152h-8.9667z" id="path72" fill="#005697" stroke-width=".2646"/><path class="cls-1" d="M170.229 323.982h4.1566v-.8573h-2.2595v-.8572h3.7888v-.8573h2.0056v-.8572h5.1805v.8572h4.8974v.8573h-.8969v.8572h10.631v.8573h2.2674a16.7164 16.7164 0 00-31.8293.8572h2.0584z" id="path74" fill="#005697" stroke-width=".2646"/><path class="cls-1" d="M178.656 339.4125h2.7014v-.8573h1.5187l4.1196-5.58-2.6115-2.9872h-2.4447v-.8625h2.2357v-.8573h-3.6248v.8573h-5.2599v-.8573h-1.196v-.8572h-2.9923v-.8626h-3.3312a16.6687 16.6687 0 003.6645 13.716h7.2205z" id="path76" fill="#005697" stroke-width=".2646"/><path class="cls-1" d="M198.6638 326.5484h.6641v.8573h-1.0583v.8625h-2.8708v.8573h-1.5875v.8625h2.8496v-.8625h4.273a16.7349 16.7349 0 00-.4312-3.4396h-1.8363z" id="path78" fill="#005697" stroke-width=".2646"/><path class="cls-1" id="polygon80" transform="translate(167.5065 312.79) scale(.26458)" fill="#005697" d="M70.25 64.98l8.06 9.24h.61l6.97-9.24z"/></g></g></svg>